<?xml version="1.0" encoding="utf-8"?>
<!-- Generator: Adobe Illustrator 25.0.1, SVG Export Plug-In . SVG Version: 6.00 Build 0)  -->
<svg version="1.0" id="Layer_1" xmlns="http://www.w3.org/2000/svg" xmlns:xlink="http://www.w3.org/1999/xlink" x="0px" y="0px"
	 viewBox="0 0 153.94 55" enable-background="new 0 0 153.94 55" xml:space="preserve">
<linearGradient id="SVGID_1_" gradientUnits="userSpaceOnUse" x1="76.9711" y1="22.2443" x2="76.9711" y2="55.0674">
	<stop  offset="0" style="stop-color:#025157;stop-opacity:0.05"/>
	<stop  offset="0.75" style="stop-color:#025157;stop-opacity:0"/>
</linearGradient>
<path fill="url(#SVGID_1_)" d="M153.94,54.99H0C0,36.7,34.46,21.87,76.97,21.87S153.94,36.7,153.94,54.99z"/>
<g opacity="0.65">
	
		<rect x="54.01" y="23.77" transform="matrix(0.9932 -0.1162 0.1162 0.9932 -2.6119 6.4625)" fill="#09777A" width="0.25" height="3.74"/>
	
		<rect x="54.5" y="28.87" transform="matrix(0.9932 -0.1162 0.1162 0.9932 -3.094 6.5478)" fill="#09777A" width="0.25" height="1.89"/>
	<path fill="#347479" d="M70.88,16.19l-0.29-0.81c-0.41-1.15-1.56-1.87-2.78-1.72L56.27,15c-1.44,0.17-2.47,1.47-2.3,2.91
		l3.28,28.08c0.12,0.99,1.01,1.69,2,1.58l41.28-4.83c0.99-0.12,1.69-1.01,1.58-2l-2.84-24.27c-0.12-0.99-1.01-1.69-2-1.58L73.3,17.7
		C72.24,17.82,71.24,17.19,70.88,16.19z"/>
	<g>
		<g>
			
				<rect x="60.65" y="5.1" transform="matrix(0.9807 -0.1955 0.1955 0.9807 -1.4893 13.4288)" fill="#5274B8" width="13.3" height="18.32"/>
			
				<rect x="60.65" y="5.1" transform="matrix(0.9807 -0.1955 0.1955 0.9807 -1.4893 13.4288)" fill="#E5EEEF" width="13.3" height="18.32"/>
		</g>
		<g>
			<path fill="#99B9BC" d="M70.29,8.3l-8.03,1.6c-0.39,0.08-0.77-0.18-0.85-0.56l0,0c-0.08-0.39,0.18-0.77,0.56-0.85l8.03-1.6
				c0.39-0.08,0.77,0.18,0.85,0.56l0,0C70.93,7.84,70.68,8.22,70.29,8.3z"/>
			<path fill="#99B9BC" d="M70.88,11.27l-8.03,1.6c-0.39,0.08-0.77-0.18-0.85-0.56l0,0c-0.08-0.39,0.18-0.77,0.56-0.85l8.03-1.6
				c0.39-0.08,0.77,0.18,0.85,0.56v0C71.52,10.82,71.27,11.19,70.88,11.27z"/>
			<path fill="#99B9BC" d="M71.47,14.24l-8.03,1.6c-0.39,0.08-0.77-0.18-0.85-0.56l0,0c-0.08-0.39,0.18-0.77,0.56-0.85l8.03-1.6
				c0.39-0.08,0.77,0.18,0.85,0.56l0,0C72.11,13.79,71.86,14.17,71.47,14.24z"/>
			<path fill="#99B9BC" d="M72.06,17.21l-8.03,1.6c-0.39,0.08-0.77-0.18-0.85-0.56v0c-0.08-0.39,0.18-0.77,0.56-0.85l8.03-1.6
				c0.39-0.08,0.77,0.18,0.85,0.56l0,0C72.71,16.76,72.45,17.14,72.06,17.21z"/>
			<path fill="#99B9BC" d="M70.46,20.62l-5.84,1.16c-0.39,0.08-0.77-0.18-0.85-0.56l0,0c-0.08-0.39,0.18-0.77,0.56-0.85l5.84-1.16
				c0.39-0.08,0.77,0.18,0.85,0.56l0,0C71.1,20.17,70.85,20.55,70.46,20.62z"/>
		</g>
	</g>
	<g>
		<g>
			
				<rect x="82.06" y="1.33" transform="matrix(0.9908 -0.1356 0.1356 0.9908 -0.603 12.1258)" fill="#5274B8" width="13.3" height="18.32"/>
			
				<rect x="82.06" y="1.33" transform="matrix(0.9908 -0.1356 0.1356 0.9908 -0.603 12.1258)" fill="#E5EEEF" width="13.3" height="18.32"/>
		</g>
		<g>
			<path fill="#99B9BC" d="M92.05,4.72l-8.12,1.11c-0.39,0.05-0.76-0.22-0.81-0.62l0,0c-0.05-0.39,0.22-0.76,0.62-0.81l8.12-1.11
				c0.39-0.05,0.76,0.22,0.81,0.62l0,0C92.72,4.3,92.45,4.67,92.05,4.72z"/>
			<path fill="#99B9BC" d="M92.47,7.72l-8.12,1.11c-0.39,0.05-0.76-0.22-0.81-0.62l0,0c-0.05-0.39,0.22-0.76,0.62-0.81l8.12-1.11
				c0.39-0.05,0.76,0.22,0.81,0.62l0,0C93.13,7.31,92.86,7.67,92.47,7.72z"/>
			<path fill="#99B9BC" d="M87,11.53l-2.24,0.31c-0.39,0.05-0.76-0.22-0.81-0.62l0,0c-0.05-0.39,0.22-0.76,0.62-0.81l2.24-0.31
				c0.39-0.05,0.76,0.22,0.81,0.62v0C87.66,11.11,87.39,11.48,87,11.53z"/>
			<path fill="#99B9BC" d="M91.33,10.94l-2.24,0.31c-0.39,0.05-0.76-0.22-0.81-0.62l0,0c-0.05-0.39,0.22-0.76,0.62-0.81l2.24-0.31
				c0.39-0.05,0.76,0.22,0.81,0.62l0,0C92,10.52,91.73,10.88,91.33,10.94z"/>
			<path fill="#99B9BC" d="M93.29,13.73l-8.12,1.11c-0.39,0.05-0.76-0.22-0.81-0.62l0,0c-0.05-0.39,0.22-0.76,0.62-0.81l8.12-1.11
				c0.39-0.05,0.76,0.22,0.81,0.62l0,0C93.96,13.31,93.68,13.67,93.29,13.73z"/>
			<path fill="#99B9BC" d="M91.48,17.03l-5.9,0.81c-0.39,0.05-0.76-0.22-0.81-0.62l0,0c-0.05-0.39,0.22-0.76,0.62-0.81l5.9-0.81
				c0.39-0.05,0.76,0.22,0.81,0.62v0C92.15,16.62,91.87,16.98,91.48,17.03z"/>
		</g>
	</g>
	<g>
		<g>
			
				<rect x="69.14" y="3.71" transform="matrix(0.9962 -0.0868 0.0868 0.9962 -0.831 6.6292)" fill="#5274B8" width="13.3" height="18.32"/>
			
				<rect x="69.14" y="3.71" transform="matrix(0.9962 -0.0868 0.0868 0.9962 -0.831 6.6292)" fill="#E5EEEF" width="13.3" height="18.32"/>
		</g>
		<g>
			<path fill="#99B9BC" d="M79.42,7.27l-8.16,0.71c-0.4,0.03-0.74-0.26-0.78-0.65l0,0c-0.03-0.4,0.26-0.74,0.65-0.78l8.16-0.71
				c0.4-0.03,0.74,0.26,0.78,0.65l0,0C80.1,6.89,79.81,7.24,79.42,7.27z"/>
			<path fill="#99B9BC" d="M79.68,10.29L71.52,11c-0.4,0.03-0.74-0.26-0.78-0.65l0,0C70.7,9.95,71,9.6,71.39,9.57l8.16-0.71
				c0.4-0.03,0.74,0.26,0.78,0.65l0,0C80.37,9.91,80.08,10.25,79.68,10.29z"/>
			<path fill="#99B9BC" d="M79.94,13.31l-8.16,0.71c-0.4,0.03-0.74-0.26-0.78-0.65l0,0c-0.03-0.4,0.26-0.74,0.65-0.78l8.16-0.71
				c0.4-0.03,0.74,0.26,0.78,0.65l0,0C80.63,12.92,80.34,13.27,79.94,13.31z"/>
			<path fill="#99B9BC" d="M80.21,16.33l-8.16,0.71c-0.4,0.03-0.74-0.26-0.78-0.65l0,0c-0.03-0.4,0.26-0.74,0.65-0.78l8.16-0.71
				c0.4-0.03,0.74,0.26,0.78,0.65l0,0C80.89,15.94,80.6,16.29,80.21,16.33z"/>
			<path fill="#99B9BC" d="M78.24,19.54l-5.93,0.52c-0.4,0.03-0.74-0.26-0.78-0.65l0,0c-0.03-0.4,0.26-0.74,0.65-0.78l5.93-0.52
				c0.4-0.03,0.74,0.26,0.78,0.65l0,0C78.93,19.16,78.63,19.5,78.24,19.54z"/>
		</g>
	</g>
	<g>
		<g>
			
				<rect x="86.44" y="2.58" transform="matrix(0.9988 -0.0482 0.0482 0.9988 -0.458 4.5023)" fill="#5274B8" width="13.3" height="18.32"/>
			
				<rect x="86.44" y="2.58" transform="matrix(0.9988 -0.0482 0.0482 0.9988 -0.458 4.5023)" fill="#E5EEEF" width="13.3" height="18.32"/>
		</g>
		<g>
			<g>
				<path fill="#99B9BC" d="M96.93,6.29l-8.18,0.4C88.35,6.71,88.01,6.4,87.99,6l0,0c-0.02-0.4,0.29-0.73,0.68-0.75l8.18-0.4
					c0.4-0.02,0.73,0.29,0.75,0.68l0,0C97.63,5.94,97.32,6.27,96.93,6.29z"/>
				<path fill="#99B9BC" d="M97.07,9.32l-8.18,0.4c-0.4,0.02-0.73-0.29-0.75-0.68l0,0c-0.02-0.4,0.29-0.73,0.68-0.75L97,7.88
					c0.4-0.02,0.73,0.29,0.75,0.68l0,0C97.77,8.96,97.47,9.3,97.07,9.32z"/>
				<path fill="#99B9BC" d="M91.29,12.63l-2.25,0.11c-0.4,0.02-0.73-0.29-0.75-0.68l0,0c-0.02-0.4,0.29-0.73,0.68-0.75l2.25-0.11
					c0.4-0.02,0.73,0.29,0.75,0.68l0,0C91.99,12.27,91.69,12.61,91.29,12.63z"/>
				<path fill="#99B9BC" d="M95.66,12.42l-2.25,0.11c-0.4,0.02-0.73-0.29-0.75-0.68l0,0c-0.02-0.4,0.29-0.73,0.68-0.75l2.25-0.11
					c0.4-0.02,0.73,0.29,0.75,0.68l0,0C96.36,12.06,96.06,12.4,95.66,12.42z"/>
				<path fill="#99B9BC" d="M97.36,15.37l-8.18,0.4c-0.4,0.02-0.73-0.29-0.75-0.68l0,0c-0.02-0.4,0.29-0.73,0.68-0.75l8.18-0.4
					c0.4-0.02,0.73,0.29,0.75,0.68l0,0C98.07,15.01,97.76,15.35,97.36,15.37z"/>
				<path fill="#99B9BC" d="M95.27,18.5l-5.95,0.29c-0.4,0.02-0.73-0.29-0.75-0.68l0,0c-0.02-0.4,0.29-0.73,0.68-0.75l5.95-0.29
					c0.4-0.02,0.73,0.29,0.75,0.68l0,0C95.98,18.15,95.67,18.49,95.27,18.5z"/>
			</g>
		</g>
	</g>
	<g>
		<path fill="#65979A" d="M74.56,16.71l-0.21-0.79c-0.3-1.13-1.37-1.82-2.59-1.68l-11.54,1.35c-1.44,0.17-2.58,1.45-2.55,2.86
			l0.65,27.49c0.02,0.97,0.84,1.66,1.83,1.54l41.28-4.83c0.99-0.12,1.77-0.99,1.75-1.96l-0.57-23.76c-0.02-0.97-0.84-1.66-1.83-1.54
			l-23.97,2.8C75.76,18.3,74.82,17.69,74.56,16.71z"/>
		<path display="none" opacity="0.3" d="M74.56,16.71l-0.21-0.79c-0.3-1.13-1.37-1.82-2.59-1.68l-11.54,1.35
			c-1.44,0.17-2.58,1.45-2.55,2.86l0.65,27.49c0.02,0.97,0.84,1.66,1.83,1.54l41.28-4.83c0.99-0.12,1.77-0.99,1.75-1.96l-0.57-23.76
			c-0.02-0.97-0.84-1.66-1.83-1.54l-23.97,2.8C75.76,18.3,74.82,17.69,74.56,16.71z"/>
	</g>
</g>
<g>
	<g>
		<path fill="#025157" d="M107.03,32.1c0.71-0.38,1.18-0.9,0.79-1.62l-3.75-6.96c-0.38-0.71-1.07-0.61-1.79-0.23
			c-0.71,0.38-1.18,0.9-0.79,1.62l3.75,6.96C105.62,32.59,106.32,32.48,107.03,32.1z"/>
	</g>
	<path fill="#025157" d="M102.01,23.45c0.61-0.26,1.17-0.25,1.5,0.36l3.75,6.96c0.33,0.62,0.03,1.09-0.52,1.46
		c-0.61,0.26-1.17,0.25-1.5-0.36l-3.75-6.96C101.15,24.29,101.46,23.82,102.01,23.45z"/>
	<g>
		<path fill="#025157" d="M102.61,23.9c0.43-0.23,0.78-0.39,0.55-0.82l-2.89-5.37c-0.23-0.43-0.76-0.58-1.19-0.36
			c-0.43,0.23-0.58,0.76-0.36,1.19l2.89,5.37C101.85,24.34,102.18,24.13,102.61,23.9z"/>
	</g>
	<path opacity="0.86" fill="#FFFFFF" d="M97.6,17.25c3.8-2.05,5.22-6.79,3.17-10.59c-0.86-1.6-2.2-2.77-3.74-3.45
		c2.29,0.39,4.38,1.79,5.57,4c2.05,3.8,0.63,8.54-3.17,10.59c-2.2,1.19-4.72,1.21-6.85,0.28C94.24,18.36,96,18.11,97.6,17.25z"/>
	<path opacity="0.35" fill="#FFFFFF" d="M100.48,5.03c0,0-3.83,12.54-4.14,13.44c-0.31,0.9-2.17-0.29-2.17-0.29L98.83,3.3
		L100.48,5.03z"/>
	<path opacity="0.35" fill="#FFFFFF" d="M97.23,3.49c0,0-4.07,13.4-4.37,14.3c-0.31,0.9-0.84,0.23-0.84,0.23l4.56-15.23L97.23,3.49z
		"/>
	<path fill="#025157" d="M100.27,17.72l1.02,1.89c-0.06,0.07-0.14,0.12-0.22,0.17l-1.04,0.56c-0.09,0.05-0.19,0.08-0.29,0.09
		l-1.01-1.88c-0.08-0.15-0.11-0.32-0.1-0.48l1.3-0.7C100.07,17.45,100.19,17.56,100.27,17.72z"/>
	<path fill="#025157" d="M98.21,2.59c-2.22-0.67-4.57-0.43-6.62,0.67c-4.22,2.27-5.8,7.56-3.53,11.78c1.85,3.43,5.67,5.11,9.31,4.41
		c0.08,0.05,0.18,0.08,0.28,0.09l1.47,0.24c0.19,0.03,0.39,0,0.56-0.09l1.04-0.56c0.18-0.1,0.32-0.25,0.4-0.44l0.54-1.29
		c0.02-0.06,0.04-0.12,0.05-0.18c0.74-0.7,1.33-1.52,1.78-2.4c1.22-2.45,1.28-5.43-0.11-8.02C102.27,4.75,100.44,3.26,98.21,2.59z
		 M101.83,7.62c1.82,3.37,0.55,7.59-2.82,9.4l0,0c-3.37,1.82-7.59,0.55-9.4-2.82c-1.11-2.07-1.07-4.45-0.09-6.41
		c0.62-1.23,1.61-2.3,2.91-3C95.79,2.99,100.01,4.25,101.83,7.62z"/>
	
		<linearGradient id="SVGID_2_" gradientUnits="userSpaceOnUse" x1="4294.2144" y1="1760.6196" x2="4309.8501" y2="1760.6196" gradientTransform="matrix(-0.8803 0.4744 0.4744 0.8803 3047.5598 -3579.8401)">
		<stop  offset="9.900990e-03" style="stop-color:#BEE0F6"/>
		<stop  offset="1" style="stop-color:#90BDE5"/>
	</linearGradient>
	<circle opacity="0.1" fill="url(#SVGID_2_)" cx="95.72" cy="10.92" r="7.82"/>
</g>
</svg>
